<svg xmlns="http://www.w3.org/2000/svg" viewBox="0 0 300 52" fill="none" role="img" aria-label="hellointerviewai.com">
  <g fill="#2A9D8F">
    <path d="M6 14c0-3.3 2.7-6 6-6h10c3.3 0 6 2.7 6 6v8.5c0 1.2-1 2.2-2.2 2.2H18.8L12 34.5V24.7c-3.3 0-6-2.7-6-6V14z"/>
    <circle cx="13" cy="18" r="1.6"/>
    <circle cx="18" cy="18" r="1.6"/>
    <circle cx="23" cy="18" r="1.6"/>
    <circle cx="33" cy="16" r="3"/>
    <circle cx="42" cy="11" r="3"/>
    <circle cx="42" cy="25" r="3"/>
    <circle cx="33" cy="30" r="3"/>
    <circle cx="33" cy="16" r="1.5" fill="#fff"/>
    <path d="M33 19v8M36 16h6M36 30h6M33 13l6-2M33 33l6 2" stroke="#2A9D8F" stroke-width="2.5" stroke-linecap="round"/>
  </g>
  <text x="54" y="34" fill="#2A9D8F" font-family="system-ui, -apple-system, Segoe UI, sans-serif" font-size="22" font-weight="600" letter-spacing="-0.02em">hellointerviewai.com</text>
</svg>
