<svg xmlns="http://www.w3.org/2000/svg" viewBox="0 0 48 48" fill="none" role="img" aria-label="hellointerviewai.com">
  <g fill="#2A9D8F">
    <path d="M4 12c0-3.3 2.7-6 6-6h10c3.3 0 6 2.7 6 6v8.5c0 1.2-1 2.2-2.2 2.2H16.8L10 32.5V22.7c-3.3 0-6-2.7-6-6V12z"/>
    <circle cx="11" cy="16" r="1.6"/>
    <circle cx="16" cy="16" r="1.6"/>
    <circle cx="21" cy="16" r="1.6"/>
    <circle cx="31" cy="14" r="3"/>
    <circle cx="40" cy="9" r="3"/>
    <circle cx="40" cy="23" r="3"/>
    <circle cx="31" cy="28" r="3"/>
    <circle cx="31" cy="14" r="1.5" fill="#fff"/>
    <path d="M31 17v8M34 14h6M34 28h6M31 11l6-2M31 31l6 2" stroke="#2A9D8F" stroke-width="2.5" stroke-linecap="round"/>
  </g>
</svg>
